<svg width="1024" height="1024" viewBox="0 0 1024 1024" fill="none" xmlns="http://www.w3.org/2000/svg">
<g clip-path="url(#clip0_1_3)">
<rect width="1024" height="1024" rx="200" fill="#F5EEE1"/>
<path d="M370.854 370.377C411.009 318.928 478.469 328.22 507.96 339.63C508.202 339.724 508.469 339.713 508.709 339.613C585.664 307.607 627.185 350.508 654.161 374.383C654.833 374.978 655.862 374.38 655.777 373.486C646.761 278.39 580.054 285.849 541.116 296.702C540.11 296.983 539.404 295.728 540.168 295.015C575.586 261.992 602.192 263.449 635.307 265.263L635.577 265.277C636.471 265.326 636.94 264.235 636.325 263.585C583.102 207.334 532.019 247.363 511.727 271.404C511.299 271.911 510.503 271.835 510.12 271.293C469.461 213.845 412.821 240.631 388.146 263.671C387.484 264.289 387.982 265.369 388.888 265.35C433.412 264.413 443.34 270.367 477.787 291.647C478.739 292.236 478.105 293.752 477.003 293.554C389.285 277.772 370.006 332.404 369.039 369.786C369.014 370.751 370.26 371.138 370.854 370.377Z" fill="#849F81" stroke="#849F81" stroke-width="5"/>
<path d="M698 843C669.318 606.679 497.224 743.092 511.884 314" stroke="#849F81" stroke-width="30"/>
<path d="M511.68 657C438.66 657 452.752 713.986 279.17 713.986L267 835H757L744.19 713.986C635.301 713.986 584.699 657 511.68 657Z" fill="#EDCC99"/>
<path d="M450.56 511.36C450.56 458.691 274.182 422.219 262.959 205.042C262.332 192.908 272.25 183.04 284.4 183.04H512.32" stroke="#849F81" stroke-width="30"/>
<path d="M450.56 511.36C450.56 564.029 274.182 600.501 262.959 817.678C262.332 829.812 272.25 839.68 284.4 839.68H512.32" stroke="#849F81" stroke-width="30"/>
<path d="M573.76 511.36C573.76 458.691 750.138 422.219 761.361 205.042C761.988 192.908 752.07 183.04 739.92 183.04H512" stroke="#849F81" stroke-width="30"/>
<path d="M573.76 511.36C573.76 564.029 750.138 600.501 761.361 817.678C761.988 829.812 752.07 839.68 739.92 839.68H512" stroke="#849F81" stroke-width="30"/>
</g>
<defs>
<clipPath id="clip0_1_3">
<rect width="1024" height="1024" fill="white"/>
</clipPath>
</defs>
</svg>
